<?xml version="1.0" standalone="no"?>
<!DOCTYPE svg PUBLIC "-//W3C//DTD SVG 20010904//EN"
 "http://www.w3.org/TR/2001/REC-SVG-20010904/DTD/svg10.dtd">
<svg version="1.0" xmlns="http://www.w3.org/2000/svg"
 width="64.000000pt" height="64.000000pt" viewBox="0 0 64.000000 64.000000"
 preserveAspectRatio="xMidYMid meet">

<g transform="translate(0.000000,64.000000) scale(0.100000,-0.100000)"
fill="#000000" stroke="none">
<path d="M417 625 c-9 -8 -17 -18 -19 -23 -1 -4 -63 -45 -136 -90 -130 -81
-133 -82 -197 -82 l-65 0 0 -49 c0 -56 17 -81 56 -81 28 0 30 -12 9 -70 -9
-26 -15 -78 -15 -136 l0 -94 100 0 100 0 0 95 c0 62 -5 108 -15 132 -8 19 -15
54 -14 77 0 40 2 42 110 124 60 45 109 79 109 75 0 -5 -14 -17 -30 -28 -24
-16 -30 -27 -30 -57 0 -36 -1 -37 -42 -40 -43 -3 -43 -3 -46 -46 -2 -31 1 -44
12 -48 24 -9 21 -79 -5 -105 -26 -26 -20 -52 28 -125 l36 -54 103 0 103 0 35
59 c42 68 46 112 14 133 -20 13 -20 18 -10 61 7 25 12 64 12 86 l0 41 -40 0
c-40 0 -40 0 -40 38 0 31 -6 40 -35 60 -37 23 -45 46 -20 56 8 3 20 17 27 30
24 54 -53 103 -95 61z m67 -24 c10 -16 -5 -41 -24 -41 -23 0 -34 16 -26 35 6
16 42 20 50 6z m-67 -58 c6 -18 -211 -173 -241 -173 -22 0 -27 4 -24 20 2 13
44 45 123 94 118 73 135 80 142 59z m60 -150 c-3 -10 -5 -4 -5 12 0 17 2 24 5
18 2 -7 2 -21 0 -30z m30 0 c-3 -10 -5 -4 -5 12 0 17 2 24 5 18 2 -7 2 -21 0
-30z m-387 -28 c0 -34 -1 -35 -38 -35 -43 0 -62 14 -62 47 0 21 4 23 50 23
l50 0 0 -35z m460 -35 c0 -19 -7 -20 -130 -20 -123 0 -130 1 -130 20 0 19 7
20 130 20 123 0 130 -1 130 -20z m-390 -20 c0 -28 -2 -30 -40 -30 -29 0 -40 4
-40 15 0 8 9 15 20 15 11 0 20 7 20 15 0 8 9 15 20 15 16 0 20 -7 20 -30z
m384 -57 c-9 -38 -7 -37 -53 -14 -52 27 -66 26 -124 -4 l-47 -25 0 35 0 35
115 0 115 0 -6 -27z m-374 -12 c0 -5 3 -16 6 -25 5 -14 -3 -16 -55 -16 -34 0
-61 4 -61 9 0 32 14 41 61 41 27 0 49 -4 49 -9z m330 -41 c67 -34 74 -42 66
-76 -8 -29 -24 -30 -73 -4 -48 26 -61 25 -128 -4 l-55 -25 -16 24 c-9 13 -13
29 -10 34 9 14 128 81 144 81 7 0 39 -13 72 -30z m-310 -99 l0 -69 -70 -4
c-39 -2 -70 0 -70 5 0 4 14 7 31 7 39 0 34 23 -7 30 -27 5 -27 6 -6 12 27 8
29 28 2 28 -16 0 -20 7 -20 30 l0 30 70 0 70 0 0 -69z m301 -11 c34 -18 38
-23 29 -40 -9 -17 -21 -20 -89 -20 -58 0 -82 4 -91 15 -15 18 -16 17 35 43 51
27 66 27 116 2z"/>
<path d="M450 584 c0 -8 5 -12 10 -9 6 3 10 10 10 16 0 5 -4 9 -10 9 -5 0 -10
-7 -10 -16z"/>
</g>
</svg>
