<?xml version="1.0" standalone="no"?>
<!DOCTYPE svg PUBLIC "-//W3C//DTD SVG 20010904//EN"
 "http://www.w3.org/TR/2001/REC-SVG-20010904/DTD/svg10.dtd">
<svg version="1.0" xmlns="http://www.w3.org/2000/svg"
 width="64.000000pt" height="64.000000pt" viewBox="0 0 64.000000 64.000000"
 preserveAspectRatio="xMidYMid meet">

<g transform="translate(0.000000,64.000000) scale(0.100000,-0.100000)"
fill="#000000" stroke="none">
<path d="M42 597 c-23 -23 -42 -52 -42 -62 0 -11 41 -61 97 -117 l97 -98 -91
-92 c-90 -93 -91 -93 -98 -156 -4 -35 -4 -66 -1 -70 4 -3 36 -1 73 5 65 12 68
13 155 100 l88 88 98 -98 c53 -53 104 -97 113 -97 21 0 109 92 109 114 0 10
-44 60 -97 111 l-98 94 98 98 c113 114 117 129 59 186 -58 56 -72 52 -184 -60
l-98 -98 -98 98 c-59 59 -105 97 -118 97 -11 0 -39 -19 -62 -43z m166 -80 l92
-93 -46 -44 c-25 -25 -40 -35 -33 -23 15 25 5 43 -13 25 -23 -23 -31 -12 -10
11 12 13 22 26 22 30 0 13 -27 7 -40 -8 -18 -22 -32 -18 -18 5 14 22 3 39 -14
22 -23 -23 -31 -12 -10 11 12 13 22 26 22 30 0 13 -27 7 -40 -8 -18 -22 -32
-18 -18 5 14 22 3 39 -14 22 -23 -23 -31 -12 -10 11 12 13 22 26 22 30 0 13
-27 7 -40 -8 -15 -18 -30 -20 -30 -3 0 15 60 78 75 78 6 0 52 -42 103 -93z
m375 65 c34 -35 34 -42 -3 -77 l-30 -29 -40 39 -40 39 27 28 c34 35 52 35 86
0z m-323 -297 c-155 -155 -176 -173 -190 -160 -13 14 5 35 160 190 155 155
176 173 190 160 13 -14 -5 -35 -160 -190z m216 134 c4 -7 -66 -84 -167 -185
-138 -138 -176 -171 -187 -162 -11 9 21 46 160 185 95 95 176 173 180 173 4 0
10 -5 14 -11z m92 -346 l-42 -43 -53 52 -53 52 20 21 c11 12 20 24 20 28 0 13
-27 7 -40 -8 -7 -8 -17 -15 -23 -15 -7 0 -7 4 1 12 20 20 15 40 -7 28 -32 -17
-36 -11 -10 16 17 20 20 28 11 31 -10 4 -7 12 9 29 l23 25 93 -93 93 -92 -42
-43z m-494 -36 c-20 -4 -38 -6 -40 -4 -2 2 -1 20 3 41 l6 37 34 -33 34 -33
-37 -8z"/>
<path d="M500 140 c-15 -15 -17 -25 -11 -42 11 -30 60 -37 78 -12 17 24 17 30
-7 54 -25 25 -35 25 -60 0z m40 -30 c0 -5 -4 -10 -10 -10 -5 0 -10 5 -10 10 0
6 5 10 10 10 6 0 10 -4 10 -10z"/>
</g>
</svg>
