<?xml version="1.0" standalone="no"?>
<!DOCTYPE svg PUBLIC "-//W3C//DTD SVG 20010904//EN"
 "http://www.w3.org/TR/2001/REC-SVG-20010904/DTD/svg10.dtd">
<svg version="1.0" xmlns="http://www.w3.org/2000/svg"
 width="64.000000pt" height="64.000000pt" viewBox="0 0 64.000000 64.000000"
 preserveAspectRatio="xMidYMid meet">

<g transform="translate(0.000000,64.000000) scale(0.100000,-0.100000)"
fill="#000000" stroke="none">
<path d="M375 626 c-74 -32 -115 -124 -96 -211 8 -36 8 -61 0 -89 -13 -48 -4
-58 44 -45 27 7 54 7 92 -1 127 -26 225 52 225 180 0 106 -75 180 -181 180
-30 -1 -68 -7 -84 -14z m154 -31 c16 -8 38 -34 50 -58 63 -129 -33 -262 -162
-226 -47 14 -43 14 -78 5 -25 -5 -26 -4 -26 42 0 26 -3 64 -7 84 -11 47 22
118 67 147 38 25 115 28 156 6z"/>
<path d="M379 526 c-13 -6 -25 -22 -27 -34 -4 -27 14 -29 28 -2 6 11 17 20 25
20 28 0 21 -26 -17 -67 -22 -22 -37 -46 -34 -52 4 -6 29 -11 57 -11 37 0 49 4
49 15 0 10 -10 15 -32 15 l-32 0 27 28 c51 54 18 119 -44 88z"/>
<path d="M491 488 c-36 -48 -35 -62 2 -66 19 -2 27 -9 27 -23 0 -29 17 -23 35
13 10 21 12 34 5 36 -5 2 -10 21 -10 43 0 52 -19 51 -59 -3z m29 -23 c0 -8 -4
-15 -10 -15 -5 0 -7 7 -4 15 4 8 8 15 10 15 2 0 4 -7 4 -15z"/>
<path d="M53 543 c-19 -20 -39 -47 -44 -60 -14 -37 -11 -101 6 -137 20 -42
302 -321 338 -335 55 -21 120 -14 166 19 78 57 79 109 3 167 -65 49 -87 52
-126 14 -17 -17 -39 -31 -47 -31 -19 0 -169 153 -169 172 0 8 14 27 30 43 37
36 37 49 1 107 -55 87 -103 100 -158 41z m103 -40 c47 -51 51 -69 21 -97 l-25
-24 -6 24 c-7 28 -26 32 -26 7 0 -88 137 -244 245 -281 39 -13 64 -17 70 -11
12 12 -11 29 -39 29 -18 0 -18 2 4 25 30 32 37 31 88 -5 53 -40 61 -64 30 -97
-26 -29 -80 -55 -100 -49 -7 3 -26 7 -43 11 -33 7 -305 268 -331 317 -8 15
-14 47 -14 72 0 36 6 52 31 81 17 19 38 35 46 35 9 0 30 -17 49 -37z"/>
</g>
</svg>
