<?xml version="1.0" standalone="no"?>
<!DOCTYPE svg PUBLIC "-//W3C//DTD SVG 20010904//EN"
 "http://www.w3.org/TR/2001/REC-SVG-20010904/DTD/svg10.dtd">
<svg version="1.0" xmlns="http://www.w3.org/2000/svg"
 width="225.000000pt" height="225.000000pt" viewBox="0 0 225.000000 225.000000"
 preserveAspectRatio="xMidYMid meet">

<g transform="translate(0.000000,225.000000) scale(0.100000,-0.100000)"
fill="#000000" stroke="none">
<path d="M1000 2244 c-14 -2 -52 -9 -85 -15 -86 -15 -208 -56 -295 -99 -309
-156 -526 -442 -602 -795 -16 -78 -16 -342 0 -420 112 -522 526 -882 1050
-912 l102 -6 0 411 0 412 -85 0 -86 0 3 143 3 142 83 3 82 3 0 107 c0 190 39
303 123 361 72 49 132 61 314 61 l163 0 0 -140 0 -140 -95 0 c-153 0 -165 -13
-165 -171 l0 -78 128 -3 127 -3 -1 -25 c-1 -14 -7 -78 -14 -142 l-12 -118
-114 0 -114 0 0 -376 0 -375 23 7 c12 3 56 24 97 44 554 280 778 961 497 1515
-152 300 -435 517 -772 591 -68 15 -304 27 -355 18z"/>
</g>
</svg>
