<?xml version="1.0" standalone="no"?>
<!DOCTYPE svg PUBLIC "-//W3C//DTD SVG 20010904//EN"
 "http://www.w3.org/TR/2001/REC-SVG-20010904/DTD/svg10.dtd">
<svg version="1.0" xmlns="http://www.w3.org/2000/svg"
 width="225.000000pt" height="225.000000pt" viewBox="0 0 225.000000 225.000000"
 preserveAspectRatio="xMidYMid meet">

<g transform="translate(0.000000,225.000000) scale(0.100000,-0.100000)"
fill="#000000" stroke="none">
<path d="M950 2235 c-170 -27 -352 -103 -490 -205 -88 -65 -213 -197 -273
-287 -219 -331 -245 -758 -67 -1118 118 -240 328 -439 568 -539 239 -100 543
-114 782 -35 402 132 694 467 766 884 24 132 14 349 -20 472 -70 251 -205 456
-401 606 -250 190 -560 270 -865 222z m2 -666 c57 -12 148 -54 188 -87 l25
-21 -59 -59 -58 -60 -66 31 c-190 89 -393 -30 -410 -239 -16 -200 177 -356
371 -300 80 23 149 89 172 164 l6 22 -130 0 -131 0 0 80 0 80 221 0 221 0 -4
-97 c-7 -157 -59 -266 -164 -346 -67 -51 -144 -78 -239 -84 -150 -10 -272 35
-367 135 -183 192 -183 469 1 653 114 114 269 161 423 128z m768 -324 l0 -65
70 0 70 0 0 -65 0 -64 -67 -3 -68 -3 -3 -67 -3 -68 -64 0 -64 0 -3 68 -3 67
-67 3 -68 3 0 64 0 65 70 0 70 0 0 65 0 65 65 0 65 0 0 -65z"/>
</g>
</svg>
