<?xml version="1.0" standalone="no"?>
<!DOCTYPE svg PUBLIC "-//W3C//DTD SVG 20010904//EN"
 "http://www.w3.org/TR/2001/REC-SVG-20010904/DTD/svg10.dtd">
<svg version="1.0" xmlns="http://www.w3.org/2000/svg"
 width="225.000000pt" height="225.000000pt" viewBox="0 0 225.000000 225.000000"
 preserveAspectRatio="xMidYMid meet">

<g transform="translate(0.000000,225.000000) scale(0.100000,-0.100000)"
fill="#000000" stroke="none">
<path d="M955 1824 c-33 -8 -101 -35 -152 -60 -148 -73 -260 -190 -334 -348
-89 -190 -76 -459 32 -639 13 -23 18 -25 23 -12 4 10 2 14 -5 9 -7 -4 -10 -1
-7 6 4 12 38 24 38 14 0 -3 -7 -19 -15 -37 l-16 -32 20 23 c18 21 26 22 174
22 86 0 167 -4 182 -10 17 -7 24 -7 20 0 -3 6 -13 10 -21 10 -8 0 -14 4 -14 9
0 5 15 4 35 -2 24 -7 31 -13 23 -19 -10 -6 -8 -8 5 -8 9 0 17 5 17 11 0 7 58
10 173 9 94 0 260 0 367 0 135 -1 198 -4 208 -13 12 -10 14 -8 9 8 -7 22 1 39
20 42 9 2 10 -4 3 -22 -17 -45 -1 -26 31 36 45 89 69 196 69 303 0 124 -21
212 -76 325 -39 80 -60 109 -133 182 -73 73 -102 94 -181 132 -52 26 -124 53
-160 61 -81 20 -254 19 -335 0z m401 -376 c44 -24 91 -81 103 -125 14 -48 14
-346 1 -394 -16 -57 -52 -102 -101 -126 -41 -20 -60 -22 -230 -23 -201 -2
-226 3 -286 54 -50 42 -63 101 -63 290 0 89 5 178 11 200 14 50 73 113 124
131 60 22 397 17 441 -7z"/>
<path d="M932 1413 c-33 -6 -88 -66 -96 -103 -10 -53 -7 -346 5 -377 16 -44
57 -80 104 -93 29 -8 99 -11 207 -9 164 4 165 4 202 33 59 45 66 72 66 263 0
200 -12 238 -79 272 -36 19 -57 21 -213 20 -95 -1 -183 -4 -196 -6z m412 -88
c3 -9 -1 -18 -10 -22 -19 -7 -39 11 -30 26 10 16 33 13 40 -4z m-165 -35 c43
-12 88 -54 107 -99 53 -126 -55 -260 -193 -238 -45 8 -75 27 -110 73 -23 31
-28 47 -28 100 0 55 4 67 31 101 52 64 116 85 193 63z"/>
<path d="M1075 1241 c-11 -5 -31 -21 -45 -36 -20 -22 -25 -37 -25 -81 0 -47 4
-58 31 -85 81 -81 213 -23 214 94 0 56 -50 108 -110 113 -25 2 -54 0 -65 -5z"/>
<path d="M1290 750 c-11 -8 -7 -9 15 -4 37 8 45 14 19 14 -10 0 -26 -5 -34
-10z"/>
<path d="M1693 725 c0 -8 4 -12 9 -9 5 3 6 10 3 15 -9 13 -12 11 -12 -6z"/>
</g>
</svg>
