<?xml version="1.0" standalone="no"?>
<!DOCTYPE svg PUBLIC "-//W3C//DTD SVG 20010904//EN"
 "http://www.w3.org/TR/2001/REC-SVG-20010904/DTD/svg10.dtd">
<svg version="1.0" xmlns="http://www.w3.org/2000/svg"
 width="225.000000pt" height="224.000000pt" viewBox="0 0 225.000000 224.000000"
 preserveAspectRatio="xMidYMid meet">

<g transform="translate(0.000000,224.000000) scale(0.100000,-0.100000)"
fill="#000000" stroke="none">
<path d="M965 2219 c-437 -63 -803 -389 -915 -814 -69 -265 -40 -530 85 -780
154 -307 427 -514 775 -587 137 -29 364 -21 500 16 116 33 256 98 354 166 85
59 224 199 277 280 90 137 156 306 180 460 18 115 6 324 -24 441 -94 360 -373
657 -727 772 -156 51 -349 68 -505 46z m560 -547 c22 -12 51 -31 65 -42 24
-20 27 -20 80 -4 30 9 72 25 94 36 l38 19 -28 -51 c-16 -29 -44 -65 -64 -81
l-35 -29 35 6 c19 4 53 13 74 21 22 7 41 11 44 8 3 -3 -26 -37 -65 -75 l-70
-71 -6 -92 c-8 -120 -28 -190 -87 -312 -127 -262 -348 -418 -644 -455 -112
-14 -230 -3 -343 31 -68 21 -177 72 -186 86 -3 5 31 9 75 10 114 3 241 45 317
104 l24 19 -34 0 c-42 0 -103 27 -148 66 -32 27 -91 108 -91 126 0 4 28 8 62
8 l61 0 -61 31 c-71 35 -124 92 -146 157 -14 39 -22 102 -13 102 1 0 20 -7 42
-15 69 -25 80 -19 40 20 -19 20 -44 54 -56 77 -26 51 -35 148 -20 203 21 76
23 76 98 4 133 -129 293 -206 467 -227 l62 -8 0 66 c0 52 6 79 28 123 31 65
99 129 159 151 60 22 180 16 232 -12z"/>
</g>
</svg>
