<?xml version="1.0" standalone="no"?>
<!DOCTYPE svg PUBLIC "-//W3C//DTD SVG 20010904//EN"
 "http://www.w3.org/TR/2001/REC-SVG-20010904/DTD/svg10.dtd">
<svg version="1.0" xmlns="http://www.w3.org/2000/svg"
 width="64.000000pt" height="64.000000pt" viewBox="0 0 64.000000 64.000000"
 preserveAspectRatio="xMidYMid meet">

<g transform="translate(0.000000,64.000000) scale(0.100000,-0.100000)"
fill="#000000" stroke="none">
<path d="M280 615 c0 -14 -6 -28 -14 -31 -21 -8 -38 -57 -34 -100 2 -30 8 -40
23 -42 17 -2 20 -9 17 -42 -3 -29 0 -40 9 -40 17 -1 54 -49 45 -58 -4 -3 -12
0 -18 6 -20 20 -40 14 -36 -10 3 -19 -10 -27 -107 -66 -119 -48 -164 -81 -165
-124 0 -22 5 -27 28 -31 l27 -4 -27 -2 c-25 -1 -28 -5 -28 -36 l0 -35 320 0
320 0 0 34 c0 30 -4 35 -27 39 l-28 4 28 2 c23 1 27 5 27 29 -1 43 -45 76
-165 124 -98 40 -110 47 -107 67 2 13 -4 31 -14 42 -16 18 -16 19 1 19 14 0
16 7 13 40 -3 33 0 40 17 42 38 6 28 127 -11 142 -8 3 -14 17 -14 31 0 23 -4
25 -40 25 -36 0 -40 -2 -40 -25z m50 -5 c0 -5 -4 -10 -10 -10 -5 0 -10 5 -10
10 0 6 5 10 10 10 6 0 10 -4 10 -10z m34 -62 c9 -12 16 -35 16 -50 0 -28 -1
-28 -60 -28 l-60 0 0 32 c0 62 71 94 104 46z m-31 -155 c-7 -2 -19 -2 -25 0
-7 3 -2 5 12 5 14 0 19 -2 13 -5z m74 -169 c108 -45 103 -42 96 -59 -8 -23
-358 -22 -367 1 -4 11 5 20 32 31 20 8 62 26 92 39 30 13 56 23 57 24 2 0 42
-16 90 -36z m-302 -64 c4 -6 -6 -10 -22 -10 -22 0 -25 2 -13 10 19 12 27 12
35 0z m465 0 c12 -8 9 -10 -13 -10 -16 0 -26 4 -22 10 8 12 16 12 35 0z m20
-53 c-31 -16 -32 -48 -2 -63 20 -10 21 -12 7 -18 -28 -10 -563 -7 -570 4 -3 6
3 10 14 10 26 0 43 30 30 53 -6 9 -19 17 -30 17 -11 0 -18 3 -16 8 3 4 137 6
299 4 242 -2 289 -5 268 -15z"/>
<path d="M100 95 c-22 -27 0 -50 46 -50 37 0 39 2 39 30 0 27 -3 30 -36 33
-24 2 -40 -2 -49 -13z m53 -22 c-7 -2 -19 -2 -25 0 -7 3 -2 5 12 5 14 0 19 -2
13 -5z"/>
<path d="M219 94 c-9 -11 -10 -20 -2 -32 22 -36 93 -26 93 12 0 37 -65 51 -91
20z m54 -21 c-7 -2 -19 -2 -25 0 -7 3 -2 5 12 5 14 0 19 -2 13 -5z"/>
<path d="M343 103 c-7 -2 -13 -15 -13 -29 0 -38 71 -48 93 -12 21 33 -33 61
-80 41z m50 -30 c-7 -2 -19 -2 -25 0 -7 3 -2 5 12 5 14 0 19 -2 13 -5z"/>
<path d="M454 96 c-13 -34 0 -51 40 -51 46 0 68 23 47 49 -17 20 -80 21 -87 2z
m59 -23 c-7 -2 -19 -2 -25 0 -7 3 -2 5 12 5 14 0 19 -2 13 -5z"/>
</g>
</svg>
